<?xml version="1.0" encoding="UTF-8" standalone="no"?>
<!DOCTYPE svg PUBLIC "-//W3C//DTD SVG 1.1//EN" "http://www.w3.org/Graphics/SVG/1.1/DTD/svg11.dtd">
<svg width="100%" height="100%" viewBox="0 0 5000 5000" version="1.1" xmlns="http://www.w3.org/2000/svg" xmlns:xlink="http://www.w3.org/1999/xlink" xml:space="preserve" xmlns:serif="http://www.serif.com/" style="fill-rule:evenodd;clip-rule:evenodd;stroke-linejoin:round;stroke-miterlimit:2;">
    <rect id="Artboard1" x="0" y="0" width="5000" height="5000" style="fill:none;"/>
    <g id="Artboard11" serif:id="Artboard1">
        <g transform="matrix(0.438788,0,0,0.438788,-19460.940857,-5655.091349)">
            <path d="M49763.426,20625.972C49286.164,20630.352 48850.509,20627.68 48826.661,20603.918C48761.017,20538.511 48407.809,19610.468 48407.809,19610.468L48015.404,18512.549C47978.585,18420.349 48078.468,18302.032 48159.105,18274.04C48277.427,18232.965 49547.03,18279.554 49547.03,18279.554L49547.03,17771.178L49183.905,17408.053L49183.905,17605.178C49183.905,17847.262 49062.863,17968.304 48820.78,17968.304L48001.155,17968.304C47759.071,17968.304 47638.03,17847.262 47638.03,17605.178L47638.03,16629.928L48234.592,16629.928L48234.592,17459.928L48587.342,17459.928L48587.342,16629.928L49183.905,16629.928L49547.03,16993.053L49547.03,16629.928L50986.61,16608.45L51029.565,18788.293L51289.798,19472.679C51265.59,19351.637 51253.486,19256.533 51253.486,19187.366L51240.29,16629.928L52460.072,16629.928L52174.759,16987.959L52247.354,20603.918L51268.95,20593.179L51025.167,19696.105L51025.167,20572.832C50951.837,20499.791 50847.695,20397.765 50748.2,20295.692C50731.021,20278.213 50731.227,20278.83 50532.836,20077.82C50444.852,19988.676 50413.791,19969.473 50306.637,20077.575C49876.382,20511.637 49796.589,20591.114 49763.426,20625.972ZM49414.016,19453.638C49433.98,19457.977 49549.651,19467.876 49594.719,19606.923C49669.086,19836.363 49356.705,20015.966 49201.678,19814.337C49164.76,19766.322 49150.557,19692.237 49163.29,19629.494C49165.776,19617.242 49168.772,19605.099 49171.39,19592.874C49177.124,19566.102 49163.322,19569.268 48908.962,19310.558C48318.197,18709.69 48319.041,18709.611 48263.711,18661.674C48248.165,18648.205 48262.714,18675.533 48577.895,19458.301C48691.32,19739.997 48861.731,20173.319 48885.889,20188.627C48939.511,20222.606 49595.881,20549.27 49605.448,20549.326C49623.285,20549.431 49624.368,20545.507 50141.834,20030.99C50246.329,19927.09 50265.973,19925.492 50246.313,19880.187C50242.625,19871.688 49936.343,19249.936 49899.46,19194.495C49867.212,19146.019 49859.475,19151.349 49456.869,18989.702C49379.732,18958.731 48739.758,18701.78 48491.88,18604.504C48410.197,18572.448 48392.889,18564.795 48384.407,18561.045C48349.624,18545.665 48497.765,18685.815 49046.766,19234.637C49256.717,19444.519 49249.498,19464.999 49298.741,19462.343C49307.14,19461.89 49338.206,19455.056 49343.706,19454.419C49390.873,19448.958 49397.765,19452.888 49414.016,19453.638ZM49380.008,19600.106C49338.34,19600.106 49304.511,19633.935 49304.511,19675.603C49304.511,19717.272 49338.34,19751.101 49380.008,19751.101C49421.677,19751.101 49455.506,19717.272 49455.506,19675.603C49455.506,19633.935 49421.677,19600.106 49380.008,19600.106Z" style="fill:rgb(239,232,216);"/>
        </g>
    </g>
</svg>
